# xmcd
#
# Track frame offsets: 
#        150
#        14265
#        27635
#        52830
#        65587
#        73785
#        87000
#        97297
#        111232
#        122057
#        139175
#        152415
#
# Disc length: 2227 seconds
#
# Revision: 3
# Processed by: cddbd v1.5.2PL0 Copyright (c) Steve Scherf et al.
# Submitted via: ExactAudioCopyFreeDBPlugin 1.0
#
DISCID=a408b10c
DTITLE=Various Artist - Spiel mir das Lied vom Tod - Die schönsten We
DTITLE=sternmelodien
DYEAR=1900
DGENRE=Soundtrack
TTITLE0=Once Upon a Time in the West (Spiel mir das Lied vom Tod)
TTITLE1=The Good,The Bad anfd the Ugly (Zwei glorreiche Halunken)
TTITLE2=Claudia´s Themen (Unforgiven - Erbarmungslos)
TTITLE3=The Magnificent Seven (Die glorreichen Sieben)
TTITLE4=A Fistful of Dollars (Für eine Handvoll Dollar)
TTITLE5=Rio Bravo (Rio Bravo)
TTITLE6=Green Leaves of Summer (Alamo)
TTITLE7=High Noon (12 Uhr mittags)
TTITLE8=The Return of the Magnificent Seven (Die Rückkehr der glorreic
TTITLE8=hen Sieben)
TTITLE9=Johnny Guitar
TTITLE10=Shane (Shane)
TTITLE11=Jill´s Theme (Once Upon a Time in the West) (Spiel mir das Li
TTITLE11=ed vom Tod)
EXTD=
EXTT0=
EXTT1=
EXTT2=
EXTT3=
EXTT4=
EXTT5=
EXTT6=
EXTT7=
EXTT8=
EXTT9=
EXTT10=
EXTT11=
PLAYORDER=
